<svg width="20" height="20" viewBox="0 0 20 20" fill="none" xmlns="http://www.w3.org/2000/svg">
<path d="M0 8.88889H8.88395V0H0V8.88889ZM2.22099 2.22222H6.66296V6.66667H2.22099V2.22222ZM0 20H8.88395V11.1111H0V20ZM2.22099 13.3333H6.66296V17.7778H2.22099V13.3333ZM11.1049 0V8.88889H19.9889V0H11.1049ZM17.7679 6.66667H13.3259V2.22222H17.7679V6.66667ZM11.116 11.1111H13.337V13.3333H11.116V11.1111ZM13.337 13.3333H15.558V15.5556H13.337V13.3333ZM11.116 15.5556H13.337V17.7778H11.116V15.5556ZM15.558 15.5556H17.779V17.7778H15.558V15.5556ZM17.779 17.7778H20V20H17.779V17.7778ZM13.337 17.7778H15.558V20H13.337V17.7778ZM15.558 11.1111H17.779V13.3333H15.558V11.1111ZM17.779 13.3333H20V15.5556H17.779V13.3333Z" fill="white"/>
</svg>
