<svg width="13" height="13" viewBox="0 0 13 13" fill="none" xmlns="http://www.w3.org/2000/svg">
<path d="M6.25 0C5.01387 0 3.8055 0.366556 2.77769 1.05331C1.74988 1.74007 0.948803 2.71619 0.475756 3.85823C0.00270793 5.00027 -0.121063 6.25693 0.120095 7.46931C0.361252 8.6817 0.956507 9.79534 1.83059 10.6694C2.70466 11.5435 3.81831 12.1387 5.03069 12.3799C6.24307 12.6211 7.49974 12.4973 8.64177 12.0242C9.78381 11.5512 10.7599 10.7501 11.4467 9.72231C12.1334 8.69451 12.5 7.48613 12.5 6.25C12.4982 4.59296 11.8391 3.0043 10.6674 1.83259C9.4957 0.660884 7.90705 0.00181975 6.25 0ZM2.55438 10.6512C2.92532 9.99808 3.46275 9.45488 4.11193 9.07699C4.76111 8.69911 5.49885 8.50002 6.25 8.50002C7.00116 8.50002 7.73889 8.69911 8.38807 9.07699C9.03726 9.45488 9.57469 9.99808 9.94563 10.6512C8.9112 11.5223 7.60233 12 6.25 12C4.89767 12 3.58881 11.5223 2.55438 10.6512ZM10.3231 10.3044C9.70211 9.26599 8.70641 8.50541 7.54125 8.17937C8.08298 7.89128 8.5128 7.43028 8.76232 6.86975C9.01185 6.30921 9.06675 5.68132 8.91829 5.08598C8.76983 4.49064 8.42653 3.96205 7.94303 3.58431C7.45952 3.20657 6.86357 3.00138 6.25 3.00138C5.63643 3.00138 5.04049 3.20657 4.55698 3.58431C4.07347 3.96205 3.73018 4.49064 3.58172 5.08598C3.43326 5.68132 3.48816 6.30921 3.73768 6.86975C3.98721 7.43028 4.41703 7.89128 4.95875 8.17937C3.79359 8.50541 2.7979 9.26599 2.17688 10.3044C1.37478 9.49941 0.829189 8.47482 0.608989 7.35999C0.388789 6.24516 0.503857 5.09009 0.939664 4.04061C1.37547 2.99113 2.11247 2.09432 3.05761 1.46341C4.00275 0.832498 5.11364 0.495785 6.25 0.495785C7.38637 0.495785 8.49726 0.832498 9.4424 1.46341C10.3875 2.09432 11.1245 2.99113 11.5603 4.04061C11.9961 5.09009 12.1112 6.24516 11.891 7.35999C11.6708 8.47482 11.1252 9.49941 10.3231 10.3044ZM6.25 8C5.80499 8 5.36998 7.86804 4.99997 7.62081C4.62996 7.37357 4.34157 7.02217 4.17127 6.61104C4.00098 6.1999 3.95642 5.7475 4.04324 5.31105C4.13005 4.87459 4.34434 4.47368 4.65901 4.15901C4.97368 3.84434 5.37459 3.63005 5.81105 3.54323C6.24751 3.45642 6.69991 3.50097 7.11104 3.67127C7.52217 3.84157 7.87358 4.12996 8.12081 4.49997C8.36804 4.86998 8.5 5.30499 8.5 5.75C8.5 6.34674 8.26295 6.91903 7.84099 7.34099C7.41904 7.76295 6.84674 8 6.25 8Z" fill="black"/>
</svg>
